<svg width="258" height="128" viewBox="0 0 258 128" fill="none" xmlns="http://www.w3.org/2000/svg">
<rect x="50.0078" y="12.2177" width="92" height="62.7216" rx="11" transform="rotate(45 50.0078 12.2177)" stroke="#23278A" stroke-width="8"/>
<path d="M73.2111 30.2668C77.3989 29.3647 80.2908 29.0985 82.1964 29.1265C83.1495 29.1405 83.8467 29.2279 84.3311 29.3417C84.8356 29.4602 85.0512 29.5939 85.1085 29.6512L98.0721 42.6148C98.1294 42.6722 98.2632 42.8877 98.3817 43.3922C98.4954 43.8766 98.5829 44.5738 98.5969 45.527C98.6248 47.4325 98.3586 50.3244 97.4565 54.5122L98.2487 54.7267C99.1587 50.5028 99.4358 47.5481 99.4067 45.5626C99.3921 44.5704 99.301 43.8109 99.1696 43.2515C99.043 42.7121 98.8651 42.2965 98.6277 42.0592L85.6641 29.0956C85.4268 28.8583 85.0112 28.6804 84.4719 28.5537C83.9124 28.4223 83.153 28.3312 82.1607 28.3167C80.1753 28.2875 77.2206 28.5647 72.9967 29.4746L73.2111 30.2668Z" fill="#23278A" stroke="#23278A" stroke-width="8"/>
<path d="M143.5 23.9167C150.198 16.0278 163.302 16.0278 170 23.9167C175.687 30.6148 174.596 39.8359 170 46.4167C157.236 64.6911 113 49.4167 113 49.4167" stroke="#5762D5" stroke-width="8" stroke-linecap="round"/>
<path d="M223.5 85.9167C230.198 78.0278 243.302 78.0278 250 85.9167C255.687 92.6148 254.596 101.836 250 108.417C237.236 126.691 109 102 109 102" stroke="#5762D5" stroke-width="8" stroke-linecap="round"/>
<path d="M183.5 54.9167C190.198 47.0278 203.302 47.0278 210 54.9167C215.687 61.6148 214.596 70.8359 210 77.4167C197.236 95.6911 122.5 77.4167 122.5 77.4167" stroke="#23278A" stroke-width="8" stroke-linecap="round"/>
</svg>
