<svg width="318" height="194" viewBox="0 0 318 194" fill="none" xmlns="http://www.w3.org/2000/svg">
<rect x="82.0078" y="13.6319" width="90" height="60.7216" rx="10" transform="rotate(45 82.0078 13.6319)" stroke="#23278A" stroke-width="10"/>
<path d="M105.211 30.2668C109.399 29.3647 112.291 29.0985 114.196 29.1265C115.15 29.1405 115.847 29.2279 116.331 29.3417C116.836 29.4602 117.051 29.5939 117.108 29.6512L130.072 42.6148C130.129 42.6722 130.263 42.8877 130.382 43.3922C130.495 43.8766 130.583 44.5738 130.597 45.527C130.625 47.4325 130.359 50.3244 129.456 54.5122L130.249 54.7267C131.159 50.5028 131.436 47.5481 131.407 45.5627C131.392 44.5704 131.301 43.8109 131.17 43.2515C131.043 42.7121 130.865 42.2965 130.628 42.0592L117.664 29.0956C117.427 28.8583 117.011 28.6804 116.472 28.5537C115.912 28.4223 115.153 28.3312 114.161 28.3167C112.175 28.2875 109.221 28.5647 104.997 29.4746L105.211 30.2668Z" fill="#23278A" stroke="#23278A" stroke-width="10"/>
<path d="M175.5 23.9167C182.198 16.0278 195.302 16.0278 202 23.9167C207.687 30.6148 206.596 39.8359 202 46.4167C189.236 64.6911 145 49.4167 145 49.4167" stroke="#5762D5" stroke-width="10" stroke-linecap="round"/>
<path d="M255.5 85.9167C262.198 78.0278 275.302 78.0278 282 85.9167C287.687 92.6148 286.596 101.836 282 108.417C269.236 126.691 141 102 141 102" stroke="#5762D5" stroke-width="10" stroke-linecap="round"/>
<path d="M215.5 54.9167C222.198 47.0278 235.302 47.0278 242 54.9167C247.687 61.6148 246.596 70.8359 242 77.4167C229.236 95.6911 154.5 77.4167 154.5 77.4167" stroke="#23278A" stroke-width="10" stroke-linecap="round"/>
<path d="M2.28 171.3C2.84 171.7 3.78 172.14 5.1 172.62C6.42 173.1 7.94 173.34 9.66 173.34C11.34 173.34 12.68 173.06 13.68 172.5C14.68 171.9 15.44 171 15.96 169.8C16.48 168.6 16.82 167.12 16.98 165.36C17.14 163.56 17.22 161.46 17.22 159.06V137.4H25.5V159.06C25.5 162.3 25.32 165.26 24.96 167.94C24.64 170.58 23.92 172.84 22.8 174.72C21.72 176.6 20.14 178.06 18.06 179.1C15.98 180.14 13.18 180.66 9.66 180.66C6.06 180.66 2.98 179.78 0.42 178.02L2.28 171.3ZM47.1839 180.6C44.6239 180.6 42.3239 180.16 40.2839 179.28C38.2439 178.4 36.5039 177.22 35.0639 175.74C33.6639 174.22 32.5839 172.48 31.8239 170.52C31.0639 168.56 30.6839 166.5 30.6839 164.34C30.6839 162.14 31.0639 160.06 31.8239 158.1C32.5839 156.14 33.6639 154.42 35.0639 152.94C36.5039 151.42 38.2439 150.22 40.2839 149.34C42.3239 148.46 44.6239 148.02 47.1839 148.02C49.7439 148.02 52.0239 148.46 54.0239 149.34C56.0639 150.22 57.7839 151.42 59.1839 152.94C60.6239 154.42 61.7239 156.14 62.4839 158.1C63.2439 160.06 63.6239 162.14 63.6239 164.34C63.6239 166.5 63.2439 168.56 62.4839 170.52C61.7239 172.48 60.6439 174.22 59.2439 175.74C57.8439 177.22 56.1239 178.4 54.0839 179.28C52.0439 180.16 49.7439 180.6 47.1839 180.6ZM38.9639 164.34C38.9639 165.74 39.1639 167.02 39.5639 168.18C40.0039 169.3 40.5839 170.28 41.3039 171.12C42.0639 171.96 42.9439 172.62 43.9439 173.1C44.9439 173.54 46.0239 173.76 47.1839 173.76C48.3439 173.76 49.4239 173.54 50.4239 173.1C51.4239 172.62 52.2839 171.96 53.0039 171.12C53.7639 170.28 54.3439 169.28 54.7439 168.12C55.1839 166.96 55.4039 165.68 55.4039 164.28C55.4039 162.92 55.1839 161.66 54.7439 160.5C54.3439 159.34 53.7639 158.34 53.0039 157.5C52.2839 156.66 51.4239 156.02 50.4239 155.58C49.4239 155.1 48.3439 154.86 47.1839 154.86C46.0239 154.86 44.9439 155.1 43.9439 155.58C42.9439 156.06 42.0639 156.72 41.3039 157.56C40.5839 158.4 40.0039 159.4 39.5639 160.56C39.1639 161.72 38.9639 162.98 38.9639 164.34ZM86.9306 180.6C84.5306 180.6 82.3906 180.06 80.5106 178.98C78.6306 177.9 77.1506 176.42 76.0706 174.54V180H69.0506V136.2H77.0906V154.08C78.2106 152.16 79.6706 150.68 81.4706 149.64C83.3106 148.56 85.4506 148.02 87.8906 148.02C89.9306 148.02 91.7906 148.46 93.4706 149.34C95.1506 150.22 96.5906 151.4 97.7906 152.88C99.0306 154.36 99.9706 156.1 100.611 158.1C101.291 160.1 101.631 162.2 101.631 164.4C101.631 166.68 101.251 168.8 100.491 170.76C99.7706 172.72 98.7506 174.44 97.4306 175.92C96.1106 177.36 94.5506 178.5 92.7506 179.34C90.9506 180.18 89.0106 180.6 86.9306 180.6ZM84.7106 173.76C85.9906 173.76 87.1706 173.52 88.2506 173.04C89.3306 172.52 90.2506 171.84 91.0106 171C91.7706 170.16 92.3506 169.18 92.7506 168.06C93.1906 166.94 93.4106 165.74 93.4106 164.46C93.4106 163.18 93.2106 161.96 92.8106 160.8C92.4106 159.64 91.8306 158.62 91.0706 157.74C90.3506 156.86 89.4906 156.16 88.4906 155.64C87.4906 155.12 86.3906 154.86 85.1906 154.86C83.3906 154.86 81.7706 155.46 80.3306 156.66C78.9306 157.82 77.8506 159.26 77.0906 160.98V168.48C77.3706 169.28 77.7706 170 78.2906 170.64C78.8506 171.28 79.4706 171.84 80.1506 172.32C80.8306 172.76 81.5706 173.12 82.3706 173.4C83.1706 173.64 83.9506 173.76 84.7106 173.76Z" fill="#5762D5"/>
<path d="M147.652 148.56C147.372 148.28 146.852 147.9 146.092 147.42C145.372 146.94 144.472 146.48 143.392 146.04C142.352 145.56 141.212 145.16 139.972 144.84C138.732 144.52 137.472 144.36 136.192 144.36C133.912 144.36 132.212 144.78 131.092 145.62C129.972 146.46 129.412 147.64 129.412 149.16C129.412 150.04 129.612 150.78 130.012 151.38C130.452 151.94 131.072 152.44 131.872 152.88C132.672 153.32 133.672 153.72 134.872 154.08C136.112 154.44 137.532 154.82 139.132 155.22C141.212 155.78 143.092 156.38 144.772 157.02C146.492 157.66 147.932 158.46 149.092 159.42C150.292 160.38 151.212 161.54 151.852 162.9C152.492 164.22 152.812 165.86 152.812 167.82C152.812 170.1 152.372 172.06 151.492 173.7C150.652 175.3 149.492 176.6 148.012 177.6C146.572 178.6 144.892 179.34 142.972 179.82C141.092 180.26 139.112 180.48 137.032 180.48C133.832 180.48 130.672 180 127.552 179.04C124.432 178.08 121.632 176.72 119.152 174.96L122.812 167.82C123.172 168.18 123.812 168.66 124.732 169.26C125.692 169.82 126.812 170.4 128.092 171C129.372 171.56 130.792 172.04 132.352 172.44C133.912 172.84 135.512 173.04 137.152 173.04C141.712 173.04 143.992 171.58 143.992 168.66C143.992 167.74 143.732 166.96 143.212 166.32C142.692 165.68 141.952 165.12 140.992 164.64C140.032 164.16 138.872 163.72 137.512 163.32C136.152 162.92 134.632 162.48 132.952 162C130.912 161.44 129.132 160.84 127.612 160.2C126.132 159.52 124.892 158.74 123.892 157.86C122.892 156.94 122.132 155.9 121.612 154.74C121.132 153.54 120.892 152.12 120.892 150.48C120.892 148.32 121.292 146.4 122.092 144.72C122.892 143.04 123.992 141.64 125.392 140.52C126.832 139.4 128.492 138.56 130.372 138C132.252 137.4 134.272 137.1 136.432 137.1C139.432 137.1 142.192 137.58 144.712 138.54C147.232 139.46 149.432 140.56 151.312 141.84L147.652 148.56ZM172.869 180.6C170.349 180.6 168.069 180.18 166.029 179.34C163.989 178.46 162.249 177.28 160.809 175.8C159.369 174.32 158.249 172.6 157.449 170.64C156.689 168.68 156.309 166.62 156.309 164.46C156.309 162.22 156.689 160.12 157.449 158.16C158.209 156.16 159.309 154.42 160.749 152.94C162.189 151.42 163.929 150.22 165.969 149.34C168.049 148.46 170.369 148.02 172.929 148.02C175.489 148.02 177.769 148.46 179.769 149.34C181.809 150.22 183.529 151.4 184.929 152.88C186.369 154.36 187.449 156.08 188.169 158.04C188.929 160 189.309 162.04 189.309 164.16C189.309 164.68 189.289 165.18 189.249 165.66C189.249 166.14 189.209 166.54 189.129 166.86H164.829C164.949 168.1 165.249 169.2 165.729 170.16C166.209 171.12 166.829 171.94 167.589 172.62C168.349 173.3 169.209 173.82 170.169 174.18C171.129 174.54 172.129 174.72 173.169 174.72C174.769 174.72 176.269 174.34 177.669 173.58C179.109 172.78 180.089 171.74 180.609 170.46L187.509 172.38C186.349 174.78 184.489 176.76 181.929 178.32C179.409 179.84 176.389 180.6 172.869 180.6ZM181.029 161.64C180.829 159.28 179.949 157.4 178.389 156C176.869 154.56 175.009 153.84 172.809 153.84C171.729 153.84 170.709 154.04 169.749 154.44C168.829 154.8 168.009 155.32 167.289 156C166.569 156.68 165.969 157.5 165.489 158.46C165.049 159.42 164.789 160.48 164.709 161.64H181.029ZM208.787 180.6C206.267 180.6 203.987 180.18 201.947 179.34C199.907 178.46 198.167 177.28 196.727 175.8C195.287 174.32 194.167 172.6 193.367 170.64C192.607 168.68 192.227 166.62 192.227 164.46C192.227 162.22 192.607 160.12 193.367 158.16C194.127 156.16 195.227 154.42 196.667 152.94C198.107 151.42 199.847 150.22 201.887 149.34C203.967 148.46 206.287 148.02 208.847 148.02C211.407 148.02 213.687 148.46 215.687 149.34C217.727 150.22 219.447 151.4 220.847 152.88C222.287 154.36 223.367 156.08 224.087 158.04C224.847 160 225.227 162.04 225.227 164.16C225.227 164.68 225.207 165.18 225.167 165.66C225.167 166.14 225.127 166.54 225.047 166.86H200.747C200.867 168.1 201.167 169.2 201.647 170.16C202.127 171.12 202.747 171.94 203.507 172.62C204.267 173.3 205.127 173.82 206.087 174.18C207.047 174.54 208.047 174.72 209.087 174.72C210.687 174.72 212.187 174.34 213.587 173.58C215.027 172.78 216.007 171.74 216.527 170.46L223.427 172.38C222.267 174.78 220.407 176.76 217.847 178.32C215.327 179.84 212.307 180.6 208.787 180.6ZM216.947 161.64C216.747 159.28 215.867 157.4 214.307 156C212.787 154.56 210.927 153.84 208.727 153.84C207.647 153.84 206.627 154.04 205.667 154.44C204.747 154.8 203.927 155.32 203.207 156C202.487 156.68 201.887 157.5 201.407 158.46C200.967 159.42 200.707 160.48 200.627 161.64H216.947ZM251.605 180L242.485 166.38L238.165 170.64V180H230.125V136.2H238.165V162.78L250.765 148.62H259.345L247.645 161.94L260.185 180H251.605ZM276.521 180.6C274.001 180.6 271.721 180.18 269.681 179.34C267.641 178.46 265.901 177.28 264.461 175.8C263.021 174.32 261.901 172.6 261.101 170.64C260.341 168.68 259.961 166.62 259.961 164.46C259.961 162.22 260.341 160.12 261.101 158.16C261.861 156.16 262.961 154.42 264.401 152.94C265.841 151.42 267.581 150.22 269.621 149.34C271.701 148.46 274.021 148.02 276.581 148.02C279.141 148.02 281.421 148.46 283.421 149.34C285.461 150.22 287.181 151.4 288.581 152.88C290.021 154.36 291.101 156.08 291.821 158.04C292.581 160 292.961 162.04 292.961 164.16C292.961 164.68 292.941 165.18 292.901 165.66C292.901 166.14 292.861 166.54 292.781 166.86H268.481C268.601 168.1 268.901 169.2 269.381 170.16C269.861 171.12 270.481 171.94 271.241 172.62C272.001 173.3 272.861 173.82 273.821 174.18C274.781 174.54 275.781 174.72 276.821 174.72C278.421 174.72 279.921 174.34 281.321 173.58C282.761 172.78 283.741 171.74 284.261 170.46L291.161 172.38C290.001 174.78 288.141 176.76 285.581 178.32C283.061 179.84 280.041 180.6 276.521 180.6ZM284.681 161.64C284.481 159.28 283.601 157.4 282.041 156C280.521 154.56 278.661 153.84 276.461 153.84C275.381 153.84 274.361 154.04 273.401 154.44C272.481 154.8 271.661 155.32 270.941 156C270.221 156.68 269.621 157.5 269.141 158.46C268.701 159.42 268.441 160.48 268.361 161.64H284.681ZM316.579 155.52C314.139 155.56 311.959 156.04 310.039 156.96C308.119 157.84 306.739 159.18 305.899 160.98V180H297.859V148.56H305.239V155.28C305.799 154.2 306.459 153.24 307.219 152.4C307.979 151.52 308.799 150.76 309.679 150.12C310.559 149.48 311.439 149 312.319 148.68C313.239 148.32 314.119 148.14 314.959 148.14C315.399 148.14 315.719 148.14 315.919 148.14C316.159 148.14 316.379 148.16 316.579 148.2V155.52Z" fill="#23278A"/>
</svg>
