<svg width="471" height="128" viewBox="0 0 471 128" fill="none" xmlns="http://www.w3.org/2000/svg">
<rect x="50.0077" y="13.6319" width="90" height="60.7216" rx="10" transform="rotate(45 50.0077 13.6319)" stroke="#23278A" stroke-width="10"/>
<path d="M73.2111 30.2668C77.3989 29.3647 80.2908 29.0985 82.1964 29.1265C83.1495 29.1405 83.8467 29.2279 84.3311 29.3417C84.8356 29.4602 85.0512 29.5939 85.1085 29.6512L98.0721 42.6148C98.1294 42.6722 98.2632 42.8877 98.3817 43.3922C98.4954 43.8766 98.5829 44.5738 98.5969 45.527C98.6248 47.4325 98.3586 50.3244 97.4565 54.5122L98.2487 54.7267C99.1587 50.5028 99.4358 47.5481 99.4067 45.5627C99.3921 44.5704 99.301 43.8109 99.1696 43.2515C99.043 42.7121 98.8651 42.2965 98.6277 42.0592L85.6641 29.0956C85.4268 28.8583 85.0112 28.6804 84.4719 28.5537C83.9124 28.4223 83.153 28.3312 82.1607 28.3167C80.1753 28.2875 77.2206 28.5647 72.9967 29.4746L73.2111 30.2668Z" fill="#23278A" stroke="#23278A" stroke-width="10"/>
<path d="M143.5 23.9167C150.198 16.0278 163.302 16.0278 170 23.9167C175.687 30.6148 174.596 39.8359 170 46.4167C157.236 64.6911 113 49.4167 113 49.4167" stroke="#5762D5" stroke-width="10" stroke-linecap="round"/>
<path d="M223.5 85.9167C230.198 78.0278 243.302 78.0278 250 85.9167C255.687 92.6148 254.596 101.836 250 108.417C237.236 126.691 109 102 109 102" stroke="#5762D5" stroke-width="10" stroke-linecap="round"/>
<path d="M183.5 54.9167C190.198 47.0278 203.302 47.0278 210 54.9167C215.687 61.6148 214.596 70.8359 210 77.4167C197.236 95.6911 122.5 77.4167 122.5 77.4167" stroke="#23278A" stroke-width="10" stroke-linecap="round"/>
<path d="M300.82 78.56C300.54 78.28 300.02 77.9 299.26 77.42C298.54 76.94 297.64 76.48 296.56 76.04C295.52 75.56 294.38 75.16 293.14 74.84C291.9 74.52 290.64 74.36 289.36 74.36C287.08 74.36 285.38 74.78 284.26 75.62C283.14 76.46 282.58 77.64 282.58 79.16C282.58 80.04 282.78 80.78 283.18 81.38C283.62 81.94 284.24 82.44 285.04 82.88C285.84 83.32 286.84 83.72 288.04 84.08C289.28 84.44 290.7 84.82 292.3 85.22C294.38 85.78 296.26 86.38 297.94 87.02C299.66 87.66 301.1 88.46 302.26 89.42C303.46 90.38 304.38 91.54 305.02 92.9C305.66 94.22 305.98 95.86 305.98 97.82C305.98 100.1 305.54 102.06 304.66 103.7C303.82 105.3 302.66 106.6 301.18 107.6C299.74 108.6 298.06 109.34 296.14 109.82C294.26 110.26 292.28 110.48 290.2 110.48C287 110.48 283.84 110 280.72 109.04C277.6 108.08 274.8 106.72 272.32 104.96L275.98 97.82C276.34 98.18 276.98 98.66 277.9 99.26C278.86 99.82 279.98 100.4 281.26 101C282.54 101.56 283.96 102.04 285.52 102.44C287.08 102.84 288.68 103.04 290.32 103.04C294.88 103.04 297.16 101.58 297.16 98.66C297.16 97.74 296.9 96.96 296.38 96.32C295.86 95.68 295.12 95.12 294.16 94.64C293.2 94.16 292.04 93.72 290.68 93.32C289.32 92.92 287.8 92.48 286.12 92C284.08 91.44 282.3 90.84 280.78 90.2C279.3 89.52 278.06 88.74 277.06 87.86C276.06 86.94 275.3 85.9 274.78 84.74C274.3 83.54 274.06 82.12 274.06 80.48C274.06 78.32 274.46 76.4 275.26 74.72C276.06 73.04 277.16 71.64 278.56 70.52C280 69.4 281.66 68.56 283.54 68C285.42 67.4 287.44 67.1 289.6 67.1C292.6 67.1 295.36 67.58 297.88 68.54C300.4 69.46 302.6 70.56 304.48 71.84L300.82 78.56ZM326.037 110.6C323.517 110.6 321.237 110.18 319.197 109.34C317.157 108.46 315.417 107.28 313.977 105.8C312.537 104.32 311.417 102.6 310.617 100.64C309.857 98.68 309.477 96.62 309.477 94.46C309.477 92.22 309.857 90.12 310.617 88.16C311.377 86.16 312.477 84.42 313.917 82.94C315.357 81.42 317.097 80.22 319.137 79.34C321.217 78.46 323.537 78.02 326.097 78.02C328.657 78.02 330.937 78.46 332.937 79.34C334.977 80.22 336.697 81.4 338.097 82.88C339.537 84.36 340.617 86.08 341.337 88.04C342.097 90 342.477 92.04 342.477 94.16C342.477 94.68 342.457 95.18 342.417 95.66C342.417 96.14 342.377 96.54 342.297 96.86H317.997C318.117 98.1 318.417 99.2 318.897 100.16C319.377 101.12 319.997 101.94 320.757 102.62C321.517 103.3 322.377 103.82 323.337 104.18C324.297 104.54 325.297 104.72 326.337 104.72C327.937 104.72 329.437 104.34 330.837 103.58C332.277 102.78 333.257 101.74 333.777 100.46L340.677 102.38C339.517 104.78 337.657 106.76 335.097 108.32C332.577 109.84 329.557 110.6 326.037 110.6ZM334.197 91.64C333.997 89.28 333.117 87.4 331.557 86C330.037 84.56 328.177 83.84 325.977 83.84C324.897 83.84 323.877 84.04 322.917 84.44C321.997 84.8 321.177 85.32 320.457 86C319.737 86.68 319.137 87.5 318.657 88.46C318.217 89.42 317.957 90.48 317.877 91.64H334.197ZM361.955 110.6C359.435 110.6 357.155 110.18 355.115 109.34C353.075 108.46 351.335 107.28 349.895 105.8C348.455 104.32 347.335 102.6 346.535 100.64C345.775 98.68 345.395 96.62 345.395 94.46C345.395 92.22 345.775 90.12 346.535 88.16C347.295 86.16 348.395 84.42 349.835 82.94C351.275 81.42 353.015 80.22 355.055 79.34C357.135 78.46 359.455 78.02 362.015 78.02C364.575 78.02 366.855 78.46 368.855 79.34C370.895 80.22 372.615 81.4 374.015 82.88C375.455 84.36 376.535 86.08 377.255 88.04C378.015 90 378.395 92.04 378.395 94.16C378.395 94.68 378.375 95.18 378.335 95.66C378.335 96.14 378.295 96.54 378.215 96.86H353.915C354.035 98.1 354.335 99.2 354.815 100.16C355.295 101.12 355.915 101.94 356.675 102.62C357.435 103.3 358.295 103.82 359.255 104.18C360.215 104.54 361.215 104.72 362.255 104.72C363.855 104.72 365.355 104.34 366.755 103.58C368.195 102.78 369.175 101.74 369.695 100.46L376.595 102.38C375.435 104.78 373.575 106.76 371.015 108.32C368.495 109.84 365.475 110.6 361.955 110.6ZM370.115 91.64C369.915 89.28 369.035 87.4 367.475 86C365.955 84.56 364.095 83.84 361.895 83.84C360.815 83.84 359.795 84.04 358.835 84.44C357.915 84.8 357.095 85.32 356.375 86C355.655 86.68 355.055 87.5 354.575 88.46C354.135 89.42 353.875 90.48 353.795 91.64H370.115ZM404.773 110L395.653 96.38L391.333 100.64V110H383.293V66.2H391.333V92.78L403.933 78.62H412.513L400.813 91.94L413.353 110H404.773ZM429.689 110.6C427.169 110.6 424.889 110.18 422.849 109.34C420.809 108.46 419.069 107.28 417.629 105.8C416.189 104.32 415.069 102.6 414.269 100.64C413.509 98.68 413.129 96.62 413.129 94.46C413.129 92.22 413.509 90.12 414.269 88.16C415.029 86.16 416.129 84.42 417.569 82.94C419.009 81.42 420.749 80.22 422.789 79.34C424.869 78.46 427.189 78.02 429.749 78.02C432.309 78.02 434.589 78.46 436.589 79.34C438.629 80.22 440.349 81.4 441.749 82.88C443.189 84.36 444.269 86.08 444.989 88.04C445.749 90 446.129 92.04 446.129 94.16C446.129 94.68 446.109 95.18 446.069 95.66C446.069 96.14 446.029 96.54 445.949 96.86H421.649C421.769 98.1 422.069 99.2 422.549 100.16C423.029 101.12 423.649 101.94 424.409 102.62C425.169 103.3 426.029 103.82 426.989 104.18C427.949 104.54 428.949 104.72 429.989 104.72C431.589 104.72 433.089 104.34 434.489 103.58C435.929 102.78 436.909 101.74 437.429 100.46L444.329 102.38C443.169 104.78 441.309 106.76 438.749 108.32C436.229 109.84 433.209 110.6 429.689 110.6ZM437.849 91.64C437.649 89.28 436.769 87.4 435.209 86C433.689 84.56 431.829 83.84 429.629 83.84C428.549 83.84 427.529 84.04 426.569 84.44C425.649 84.8 424.829 85.32 424.109 86C423.389 86.68 422.789 87.5 422.309 88.46C421.869 89.42 421.609 90.48 421.529 91.64H437.849ZM469.747 85.52C467.307 85.56 465.127 86.04 463.207 86.96C461.287 87.84 459.907 89.18 459.067 90.98V110H451.027V78.56H458.407V85.28C458.967 84.2 459.627 83.24 460.387 82.4C461.147 81.52 461.967 80.76 462.847 80.12C463.727 79.48 464.607 79 465.487 78.68C466.407 78.32 467.287 78.14 468.127 78.14C468.567 78.14 468.887 78.14 469.087 78.14C469.327 78.14 469.547 78.16 469.747 78.2V85.52Z" fill="#23278A"/>
<path d="M234.28 49.3C234.84 49.7 235.78 50.14 237.1 50.62C238.42 51.1 239.94 51.34 241.66 51.34C243.34 51.34 244.68 51.06 245.68 50.5C246.68 49.9 247.44 49 247.96 47.8C248.48 46.6 248.82 45.12 248.98 43.36C249.14 41.56 249.22 39.46 249.22 37.06V15.4H257.5V37.06C257.5 40.3 257.32 43.26 256.96 45.94C256.64 48.58 255.92 50.84 254.8 52.72C253.72 54.6 252.14 56.06 250.06 57.1C247.98 58.14 245.18 58.66 241.66 58.66C238.06 58.66 234.98 57.78 232.42 56.02L234.28 49.3ZM279.184 58.6C276.624 58.6 274.324 58.16 272.284 57.28C270.244 56.4 268.504 55.22 267.064 53.74C265.664 52.22 264.584 50.48 263.824 48.52C263.064 46.56 262.684 44.5 262.684 42.34C262.684 40.14 263.064 38.06 263.824 36.1C264.584 34.14 265.664 32.42 267.064 30.94C268.504 29.42 270.244 28.22 272.284 27.34C274.324 26.46 276.624 26.02 279.184 26.02C281.744 26.02 284.024 26.46 286.024 27.34C288.064 28.22 289.784 29.42 291.184 30.94C292.624 32.42 293.724 34.14 294.484 36.1C295.244 38.06 295.624 40.14 295.624 42.34C295.624 44.5 295.244 46.56 294.484 48.52C293.724 50.48 292.644 52.22 291.244 53.74C289.844 55.22 288.124 56.4 286.084 57.28C284.044 58.16 281.744 58.6 279.184 58.6ZM270.964 42.34C270.964 43.74 271.164 45.02 271.564 46.18C272.004 47.3 272.584 48.28 273.304 49.12C274.064 49.96 274.944 50.62 275.944 51.1C276.944 51.54 278.024 51.76 279.184 51.76C280.344 51.76 281.424 51.54 282.424 51.1C283.424 50.62 284.284 49.96 285.004 49.12C285.764 48.28 286.344 47.28 286.744 46.12C287.184 44.96 287.404 43.68 287.404 42.28C287.404 40.92 287.184 39.66 286.744 38.5C286.344 37.34 285.764 36.34 285.004 35.5C284.284 34.66 283.424 34.02 282.424 33.58C281.424 33.1 280.344 32.86 279.184 32.86C278.024 32.86 276.944 33.1 275.944 33.58C274.944 34.06 274.064 34.72 273.304 35.56C272.584 36.4 272.004 37.4 271.564 38.56C271.164 39.72 270.964 40.98 270.964 42.34ZM318.931 58.6C316.531 58.6 314.391 58.06 312.511 56.98C310.631 55.9 309.151 54.42 308.071 52.54V58H301.051V14.2H309.091V32.08C310.211 30.16 311.671 28.68 313.471 27.64C315.311 26.56 317.451 26.02 319.891 26.02C321.931 26.02 323.791 26.46 325.471 27.34C327.151 28.22 328.591 29.4 329.791 30.88C331.031 32.36 331.971 34.1 332.611 36.1C333.291 38.1 333.631 40.2 333.631 42.4C333.631 44.68 333.251 46.8 332.491 48.76C331.771 50.72 330.751 52.44 329.431 53.92C328.111 55.36 326.551 56.5 324.751 57.34C322.951 58.18 321.011 58.6 318.931 58.6ZM316.711 51.76C317.991 51.76 319.171 51.52 320.251 51.04C321.331 50.52 322.251 49.84 323.011 49C323.771 48.16 324.351 47.18 324.751 46.06C325.191 44.94 325.411 43.74 325.411 42.46C325.411 41.18 325.211 39.96 324.811 38.8C324.411 37.64 323.831 36.62 323.071 35.74C322.351 34.86 321.491 34.16 320.491 33.64C319.491 33.12 318.391 32.86 317.191 32.86C315.391 32.86 313.771 33.46 312.331 34.66C310.931 35.82 309.851 37.26 309.091 38.98V46.48C309.371 47.28 309.771 48 310.291 48.64C310.851 49.28 311.471 49.84 312.151 50.32C312.831 50.76 313.571 51.12 314.371 51.4C315.171 51.64 315.951 51.76 316.711 51.76Z" fill="#5762D5"/>
</svg>
