<svg width="100" height="85" viewBox="0 0 100 85" fill="none" xmlns="http://www.w3.org/2000/svg">
<rect x="5" y="19.2784" width="90" height="60.7216" rx="10" stroke="#23278A" stroke-width="10"/>
<path d="M33.17 14.6338C35.4933 11.0347 37.3499 8.80162 38.7171 7.47393C39.401 6.80981 39.9558 6.3787 40.3788 6.1166C40.8193 5.84362 41.0663 5.7858 41.1474 5.7858L59.4807 5.7858C59.5618 5.7858 59.8088 5.84362 60.2493 6.1166C60.6723 6.3787 61.2271 6.80981 61.911 7.47393C63.2781 8.80162 65.1348 11.0347 67.4581 14.6338L68.17 14.2253C65.8266 10.5951 63.9333 8.30983 62.5088 6.92652C61.7969 6.23515 61.1954 5.7626 60.7069 5.4599C60.236 5.16809 59.8163 5 59.4807 5L41.1474 5C40.8118 5 40.3921 5.16809 39.9212 5.4599C39.4327 5.7626 38.8312 6.23515 38.1193 6.92652C36.6948 8.30983 34.8015 10.5951 32.4581 14.2253L33.17 14.6338Z" fill="#23278A" stroke="#23278A" stroke-width="10"/>
</svg>
