<svg width="100" height="84" viewBox="0 0 100 84" fill="none" xmlns="http://www.w3.org/2000/svg">
<rect x="4" y="17.2784" width="92" height="62.7216" rx="11" stroke="#23278A" stroke-width="8"/>
<path d="M33.17 13.6338C35.4933 10.0347 37.3499 7.80162 38.7171 6.47393C39.401 5.80981 39.9558 5.3787 40.3788 5.1166C40.8193 4.84362 41.0663 4.7858 41.1474 4.7858L59.4807 4.7858C59.5618 4.7858 59.8088 4.84362 60.2493 5.1166C60.6723 5.3787 61.2271 5.80981 61.911 6.47393C63.2781 7.80162 65.1348 10.0347 67.4581 13.6338L68.17 13.2253C65.8266 9.5951 63.9333 7.30983 62.5088 5.92652C61.7969 5.23515 61.1954 4.7626 60.7069 4.4599C60.236 4.16809 59.8163 4 59.4807 4L41.1474 4C40.8118 4 40.3921 4.16809 39.9212 4.4599C39.4327 4.7626 38.8312 5.23515 38.1193 5.92652C36.6948 7.30983 34.8015 9.5951 32.4581 13.2253L33.17 13.6338Z" fill="#23278A" stroke="#23278A" stroke-width="8"/>
</svg>
